C:\Users\r0593348\3dpredictsim\Results\Batchsim_tmt_linear\Pog_s1_tmt_aCst_d00_k800_ig24_pas_GRF.mot
nRows=17
nColumns=19

name C:\Users\r0593348\3dpredictsim\Results\Batchsim_tmt_linear\Pog_s1_tmt_aCst_d00_k800_ig24_pas_GRF.mot
datacolumns 19
datarows 17
range 0.0000000000 0.1772107450
endheader
time 	ground_force_vx	ground_force_vy	ground_force_vz	ground_force_px	ground_force_py	ground_force_pz	1_ground_force_vx	1_ground_force_vy	1_ground_force_vz	1_ground_force_px	1_ground_force_py	1_ground_force_pz	ground_torque_x	ground_torque_y	ground_torque_z	1_ground_torque_x	1_ground_torque_y	1_ground_torque_z
        0.0000000000	      -96.8196976097	       90.9552014839	       43.2068927693	        0.1682695855	        0.0000000000	        0.0376325329	       94.3522665983	      472.2637141058	       -5.0626121039	       -0.3206814389	        0.0000000000	       -0.0350180858	        0.0000000000	        0.0000000000	        0.0000000000	        0.0000000000	        0.0000000000	        0.0000000000	
        0.0110756716	      -91.4040046888	      190.7403487450	       77.9793256434	        0.1743978494	        0.0000000000	        0.0358445613	       76.0505163996	      388.4919061221	      -10.4855000551	       -0.3165536772	        0.0000000000	       -0.0338187933	        0.0000000000	        0.0000000000	        0.0000000000	        0.0000000000	        0.0000000000	        0.0000000000	
        0.0221513431	      -47.5083635595	      348.3541836477	       18.0461138719	        0.1785123321	        0.0000000000	        0.0340644441	       55.5911559232	      300.6942385499	       -7.8756302339	       -0.3101498012	        0.0000000000	       -0.0313271971	        0.0000000000	        0.0000000000	        0.0000000000	        0.0000000000	        0.0000000000	        0.0000000000	
        0.0332270147	      -50.9690199434	      518.1116172231	       -1.9549098802	        0.1841162082	        0.0000000000	        0.0351191320	       27.4278535486	      199.3300844664	       -6.2445748583	       -0.2977332332	        0.0000000000	       -0.0257607278	        0.0000000000	        0.0000000000	        0.0000000000	        0.0000000000	        0.0000000000	        0.0000000000	
        0.0443026863	      -84.9559171797	      696.3709171606	       -9.2515711388	        0.1921273813	        0.0000000000	        0.0375691552	        7.7841807105	      138.6693769349	      -10.6040470423	       -0.2846783787	        0.0000000000	       -0.0190813673	        0.0000000000	        0.0000000000	        0.0000000000	        0.0000000000	        0.0000000000	        0.0000000000	
        0.0553783578	     -106.5475825894	      805.5951068501	      -12.6063091489	        0.1976361164	        0.0000000000	        0.0391401306	        1.2798983739	      109.1248752126	      -11.8706142044	       -0.2847936686	        0.0000000000	       -0.0193900603	        0.0000000000	        0.0000000000	        0.0000000000	        0.0000000000	        0.0000000000	        0.0000000000	
        0.0664540294	     -110.8771502495	      843.4317246414	      -13.4823089663	        0.2014238789	        0.0000000000	        0.0400800493	       -2.4765031469	       71.5802646938	      -10.9730306217	       -0.2843064400	        0.0000000000	       -0.0194489923	        0.0000000000	        0.0000000000	        0.0000000000	        0.0000000000	        0.0000000000	        0.0000000000	
        0.0775297009	     -105.9885849692	      838.8781113108	      -13.6749490844	        0.2044752780	        0.0000000000	        0.0406287586	       -8.3081675028	       29.7977357266	       -5.9202227614	       -0.2846149402	        0.0000000000	       -0.0192663324	        0.0000000000	        0.0000000000	        0.0000000000	        0.0000000000	        0.0000000000	        0.0000000000	
        0.0886053725	      -96.7289444918	      820.2905744357	      -14.0182769166	        0.2076182174	        0.0000000000	        0.0409051030	        0.1076536261	       -0.1070993696	        0.0029139908	        0.0000000000	        0.0000000000	        0.0000000000	        0.0000000000	        0.0000000000	        0.0000000000	        0.0000000000	        0.0000000000	        0.0000000000	
        0.0996810441	      -84.6076297216	      791.0947664490	      -14.7572416538	        0.2108982417	        0.0000000000	        0.0410193626	        0.0001334207	       -0.0001087931	       -0.0000072981	        0.0000000000	        0.0000000000	        0.0000000000	        0.0000000000	        0.0000000000	        0.0000000000	        0.0000000000	        0.0000000000	        0.0000000000	
        0.1107567156	      -73.3547460384	      757.7593576841	      -15.1334665062	        0.2146889275	        0.0000000000	        0.0410499914	        0.0000551612	       -0.0000390992	       -0.0000040202	        0.0000000000	        0.0000000000	        0.0000000000	        0.0000000000	        0.0000000000	        0.0000000000	        0.0000000000	        0.0000000000	        0.0000000000	
        0.1218323872	      -63.7529407128	      726.8132973100	      -15.2636372085	        0.2190839736	        0.0000000000	        0.0409673966	        0.0005353936	       -0.0003400050	       -0.0000437137	        0.0000000000	        0.0000000000	        0.0000000000	        0.0000000000	        0.0000000000	        0.0000000000	        0.0000000000	        0.0000000000	        0.0000000000	
        0.1329080588	      -54.2816483123	      696.2803639014	      -15.8018661435	        0.2234741432	        0.0000000000	        0.0408781112	        0.0055132116	       -0.0032075873	       -0.0004774587	        0.0000000000	        0.0000000000	        0.0000000000	        0.0000000000	        0.0000000000	        0.0000000000	        0.0000000000	        0.0000000000	        0.0000000000	
        0.1439837303	      -45.0061643801	      667.1765694831	      -16.3186908999	        0.2277508818	        0.0000000000	        0.0408480452	       -0.0286614001	        0.0155022192	        0.0025835370	        0.0000000000	        0.0000000000	        0.0000000000	        0.0000000000	        0.0000000000	        0.0000000000	        0.0000000000	        0.0000000000	        0.0000000000	
        0.1550594019	      -37.0486182845	      641.7997506108	      -16.8118668072	        0.2320976116	        0.0000000000	        0.0408686119	       -0.0198076187	        0.0100705582	        0.0018423096	        0.0000000000	        0.0000000000	        0.0000000000	        0.0000000000	        0.0000000000	        0.0000000000	        0.0000000000	        0.0000000000	        0.0000000000	
        0.1661350735	      -30.4728938045	      620.8404376344	      -17.4520300436	        0.2364736872	        0.0000000000	        0.0409141067	       -0.0139078905	        0.0067066411	        0.0013272386	        0.0000000000	        0.0000000000	        0.0000000000	        0.0000000000	        0.0000000000	        0.0000000000	        0.0000000000	        0.0000000000	        0.0000000000	
        0.1772107450	      -24.8205551346	      604.4912687197	      -17.9439410691	        0.2410668612	        0.0000000000	        0.0409689966	       -0.0126371171	        0.0058246057	        0.0012263037	        0.0000000000	        0.0000000000	        0.0000000000	        0.0000000000	        0.0000000000	        0.0000000000	        0.0000000000	        0.0000000000	        0.0000000000	
